HIERARCHY
ROOT Hips
{
	OFFSET 0.000000 0.000000 0.000000 
	CHANNELS 6 Xposition Yposition Zposition Zrotation Yrotation Xrotation
	JOINT LeftUpLeg
	{
		OFFSET 1.363060 -1.794630 0.839290 
		CHANNELS 3 Zrotation Yrotation Xrotation
		JOINT LeftLeg
		{
			OFFSET 2.448110 -6.726130 0.000000 
			CHANNELS 3 Zrotation Yrotation Xrotation
			JOINT LeftFoot
			{
				OFFSET 2.562200 -7.039590 0.000000 
				CHANNELS 3 Zrotation Yrotation Xrotation
				JOINT LeftToeBase
				{
					OFFSET 0.157640 -0.433110 2.322550 
					CHANNELS 3 Zrotation Yrotation Xrotation
					End Site
					{
						OFFSET 0.000000 0.000000 0.000000 
					}
				}
			}
		}
	}
	JOINT RightUpLeg
	{
		OFFSET -1.305520 -1.794630 0.839290 
		CHANNELS 3 Zrotation Yrotation Xrotation
		JOINT RightLeg
		{
			OFFSET -2.542530 -6.985550 0.000000 
			CHANNELS 3 Zrotation Yrotation Xrotation
			JOINT RightFoot
			{
				OFFSET -2.568260 -7.056230 0.000000 
				CHANNELS 3 Zrotation Yrotation Xrotation
				JOINT RightToeBase
				{
					OFFSET -0.164730 -0.452590 2.363150 
					CHANNELS 3 Zrotation Yrotation Xrotation
					End Site
					{
						OFFSET 0.000000 0.000000 0.000000 
					}
				}
			}
		}
	}
	JOINT Spine
	{
		OFFSET 0.028270 2.035590 -0.193380 
		CHANNELS 3 Zrotation Yrotation Xrotation
		JOINT Spine1
		{
			OFFSET 0.056720 2.048850 -0.042750 
			CHANNELS 3 Zrotation Yrotation Xrotation
			JOINT Neck1
			{
				OFFSET -0.054170 1.746240 0.172020 
				CHANNELS 3 Zrotation Yrotation Xrotation
				JOINT Head
				{
					OFFSET 0.104070 1.761360 -0.123970 
					CHANNELS 3 Zrotation Yrotation Xrotation
					End Site
					{
						OFFSET 0.000000 0.000000 0.000000 
					}
				}
			}
			JOINT LeftArm
			{
				OFFSET 3.362410 1.200890 -0.311210 
				CHANNELS 3 Zrotation Yrotation Xrotation
				JOINT LeftForeArm
				{
					OFFSET 4.983000 -0.000000 -0.000000 
					CHANNELS 3 Zrotation Yrotation Xrotation
					JOINT LeftHand
					{
						OFFSET 3.483560 -0.000000 -0.000000 
						CHANNELS 3 Zrotation Yrotation Xrotation
						JOINT LeftHandIndex1
						{
							OFFSET 0.715260 -0.000000 -0.000000 
							CHANNELS 3 Zrotation Yrotation Xrotation
							End Site
							{
								OFFSET 0.000000 0.000000 0.000000 
							}
						}
					}
				}
			}
			JOINT RightArm
			{
				OFFSET -3.136600 1.374050 -0.404650 
				CHANNELS 3 Zrotation Yrotation Xrotation
				JOINT RightForeArm
				{
					OFFSET -5.241900 -0.000000 -0.000000 
					CHANNELS 3 Zrotation Yrotation Xrotation
					JOINT RightHand
					{
						OFFSET -3.444170 -0.000000 -0.000000 
						CHANNELS 3 Zrotation Yrotation Xrotation
						JOINT RightHandIndex1
						{
							OFFSET -0.622530 -0.000000 -0.000000 
							CHANNELS 3 Zrotation Yrotation Xrotation
							End Site
							{
								OFFSET 0.000000 0.000000 0.000000 
							}
						}
					}
				}
			}
		}
	}
}
MOTION
Frames: 9
Frame Time: 0.041667
8.685006 17.741161 -10.777428 7.553845 -9.124733 -9.278548 9.013806 -10.065987 -103.766426 4.235713 15.703887 40.117188 38.566269 -4.985861 176.595280 6.505000 -14.900500 -46.976300 26.355602 5.114867 10.107131 -0.859141 -5.428924 22.135533 -0.967546 0.815810 -15.628569 -0.464200 4.370100 -12.120200 -1.184884 4.982354 -1.982628 -5.674526 2.592442 3.687514 3.661439 5.678810 34.857542 1.610400 2.781000 14.015200 -73.389852 11.141576 12.280598 11.291161 -21.770019 -3.310918 -0.173375 1.247118 17.725080 -7.125000 0.000000 0.000000 61.269144 -6.925882 25.421148 -32.027399 46.793217 -15.690097 1.829605 0.392221 -6.191576 7.125000 0.000000 0.000000 
8.665564 17.756368 -10.789376 7.927987 -8.718192 -8.237611 7.950046 -10.547430 -100.780660 4.806885 16.332970 42.289171 38.411538 -5.829593 176.509352 5.848900 -14.280300 -44.372100 25.604016 4.891930 9.184610 -0.749970 -5.203199 21.338665 -0.935073 1.129668 -15.146462 -0.353000 3.817100 -10.562500 -1.189472 4.769569 -2.004879 -5.413654 2.453980 4.070086 3.551919 5.609483 34.930978 1.534400 2.761600 14.133600 -73.187010 10.847301 13.097335 11.754878 -22.388303 -3.501095 -0.172544 1.255471 17.182517 -7.125000 0.000000 0.000000 61.388786 -6.716724 25.436329 -31.474761 46.460067 -15.331356 1.828177 0.373063 -6.291016 7.125000 0.000000 0.000000 
8.628851 17.771249 -10.871492 7.753780 -8.471129 -7.125943 7.097551 -10.668416 -97.156457 5.583066 17.080102 45.077348 38.317761 -6.286536 176.430358 5.718700 -14.150100 -43.842100 25.981560 5.541214 7.897534 -0.687654 -5.224630 21.172617 -0.852454 0.599968 -14.901428 -0.298600 3.513700 -9.712300 -1.110764 4.566723 -2.111573 -5.061473 2.326743 3.811204 3.492766 5.747843 34.888851 1.518400 2.806400 14.278700 -73.195011 10.621770 13.870195 12.344194 -23.116015 -3.740751 -0.151676 1.261841 16.886974 -7.125000 0.000000 0.000000 61.446968 -6.480281 25.350733 -30.780035 45.980736 -14.880339 1.824999 0.360602 -6.158282 7.125000 0.000000 0.000000 
8.607127 17.784391 -10.881376 8.007702 -8.061866 -6.288641 5.739313 -11.199656 -93.177850 6.432792 17.790623 47.983431 38.354929 -5.905241 176.929654 6.736500 -15.105900 -47.870600 25.417910 5.059754 7.186353 -0.590607 -5.010865 20.447242 -0.809924 0.774578 -14.423336 -0.363100 3.870600 -10.713000 -1.080953 4.335680 -2.099340 -4.721144 2.184453 4.145823 3.538238 5.958238 34.778941 1.582600 2.873800 14.115000 -73.163234 10.371300 14.734501 12.934536 -23.864034 -3.979997 -0.139615 1.246885 16.672675 -7.125000 0.000000 0.000000 61.646477 -6.428244 25.217757 -30.048804 45.519475 -14.417266 1.819581 0.328800 -5.888841 7.125000 0.000000 0.000000 
8.571392 17.803943 -10.934708 7.345244 -8.134653 -5.285881 4.963655 -10.992719 -88.880505 7.451364 18.527202 51.256618 38.391250 -5.503331 177.928782 8.280100 -16.321500 -53.565600 26.408589 5.553900 6.136905 -0.542232 -5.064059 20.390305 -0.756904 0.451511 -14.240973 -0.435200 4.233400 -11.734400 -0.939298 4.247635 -2.152142 -4.365087 2.137918 4.108051 3.766508 5.972475 35.037735 1.748900 2.854500 14.339300 -73.247286 9.842500 15.480971 13.403685 -24.418666 -4.169859 -0.124674 1.240867 16.458248 -7.125000 0.000000 0.000000 61.818708 -6.527747 25.121340 -29.507176 45.153716 -14.068030 1.819456 0.294899 -5.630534 7.125000 0.000000 0.000000 
8.545758 17.820996 -10.942311 7.606363 -8.034572 -4.455792 3.375664 -11.238225 -84.224779 8.819900 19.421122 55.515579 38.083559 -7.305225 176.905371 6.649200 -15.029200 -47.534700 26.029101 5.564257 5.366009 -0.484014 -4.974264 19.991666 -0.727651 0.505295 -13.957536 -0.482000 4.451900 -12.351600 -0.903822 4.145756 -2.166749 -3.950554 2.053584 4.321965 3.927485 5.853924 35.116573 1.869400 2.776700 14.390800 -73.547366 10.184668 16.328380 14.345743 -25.574853 -4.577216 -0.109973 1.226221 16.046267 -7.125000 0.000000 0.000000 62.147984 -7.075462 24.965156 -29.263679 45.033076 -13.932229 1.807769 0.284326 -5.255276 7.125000 0.000000 0.000000 
8.524577 17.834356 -10.947524 7.874878 -7.762178 -3.685630 1.415700 -11.674712 -79.516107 10.347919 20.214928 60.039713 37.941921 -8.055440 177.092734 7.015300 -15.344700 -48.932100 25.583682 5.434759 4.755637 -0.406463 -4.829673 19.451388 -0.688967 0.467429 -13.661914 -0.505600 4.558000 -12.652000 -0.941948 4.014490 -2.170779 -3.987880 1.976156 4.597869 4.160087 5.825586 35.114891 1.995400 2.777500 14.460600 -73.312756 10.343668 17.622019 15.243952 -26.647208 -4.975449 -0.118225 1.212700 15.171847 -7.125000 0.000000 0.000000 62.947700 -7.671140 24.575130 -29.089636 44.991903 -13.838432 1.807492 0.234666 -5.051907 7.125000 0.000000 0.000000 
8.495902 17.853581 -10.975439 7.032643 -7.373462 -2.655461 0.634319 -11.917978 -75.075438 12.002163 20.894200 64.764904 37.817525 -8.728145 177.191042 7.358900 -15.626800 -50.218900 26.636864 5.542121 4.011944 -0.294525 -4.730867 18.967029 -0.615648 -0.012855 -13.406335 -0.569800 4.834400 -13.436900 -0.870561 3.786289 -2.231431 -4.310128 1.903662 4.602917 3.945779 6.012497 34.955901 1.831300 2.891500 14.342100 -72.966627 10.164811 18.785895 15.840321 -27.329287 -5.245428 -0.135360 1.215479 14.276867 -7.125000 0.000000 0.000000 63.783787 -8.134129 24.193335 -28.601355 44.732735 -13.542063 1.815489 0.155717 -4.794583 7.125000 0.000000 0.000000 
8.470703 17.872046 -10.989125 7.181680 -7.186260 -1.912349 -1.244418 -12.162912 -70.121522 13.965584 21.516035 70.284156 37.617207 -10.165631 176.356507 6.601000 -14.986400 -47.348500 26.513269 5.785502 3.409978 -0.215098 -4.624276 18.517394 -0.543260 -0.413731 -13.084012 -0.717900 5.414400 -15.094400 -0.848151 3.647210 -2.318389 -4.164336 1.817404 4.371954 3.788690 6.033016 34.899551 1.721700 2.903000 14.224000 -73.136513 10.464415 19.363891 16.477828 -28.062100 -5.554574 -0.139060 1.229017 13.877875 -7.125000 0.000000 0.000000 64.362141 -8.692603 23.934395 -27.794236 44.224825 -13.064423 1.809606 0.105430 -4.411138 7.125000 0.000000 0.000000 
